<svg width="20" height="20" viewBox="0 0 20 20" fill="none" xmlns="http://www.w3.org/2000/svg">
<path d="M19.3076 14.399L16.8285 11.9294C16.3913 11.4765 15.8667 11.2369 15.3158 11.2369C14.7649 11.2369 14.2359 11.4765 13.7855 11.9251L12.3558 13.3493C12.2378 13.284 12.1197 13.223 12.0017 13.1664C11.8487 13.0923 11.6913 13.0096 11.5557 12.9225C10.2222 12.0775 9.01114 10.98 7.84377 9.55575C7.27102 8.83275 6.89064 8.23171 6.61957 7.63066C6.99558 7.29094 7.34972 6.9338 7.67763 6.59843C7.80005 6.47213 7.93122 6.34146 8.05364 6.21951C8.51709 5.75784 8.7663 5.22213 8.7663 4.6777C8.7663 4.12892 8.52146 3.59756 8.05801 3.13589L6.82943 1.91202C6.68953 1.77265 6.55836 1.63763 6.42282 1.49826L6.40971 1.48519C6.14301 1.2108 5.85444 0.91899 5.57025 0.657665C5.13304 0.230836 4.60838 0 4.05749 0C3.51097 0 2.98631 0.226481 2.52724 0.662021L0.988238 2.19948C0.411114 2.77439 0.0875741 3.47125 0.0176197 4.277C-0.0610791 5.27439 0.122551 6.3284 0.594744 7.60017C1.32052 9.56446 2.41356 11.3807 4.03563 13.3232C6.0031 15.662 8.3728 17.5131 11.0879 18.824C12.1285 19.3162 13.5188 19.8911 15.0491 19.9913H15.0622C15.154 19.9956 15.2415 20 15.3333 20C16.3826 20 17.2308 19.6385 17.9216 18.8937C17.9303 18.885 17.9391 18.8763 17.9478 18.8632C18.1664 18.6019 18.4113 18.3624 18.6736 18.1098L18.7304 18.0531C18.9622 17.831 19.1502 17.6481 19.3119 17.4739C20.2301 16.5244 20.2301 15.3179 19.3076 14.399ZM5.69705 6.87282L5.67081 6.89896C5.29918 7.26916 5.35165 7.63066 5.44346 7.9007C5.44783 7.90941 5.44783 7.91376 5.45221 7.92247C5.45221 7.92683 5.45658 7.93118 5.45658 7.93554V7.9399V7.94425C5.78449 8.72387 6.23482 9.45557 6.91688 10.3092C8.1542 11.8336 9.46147 13.0183 10.913 13.9329C11.0617 14.0287 11.2234 14.1115 11.3765 14.1855C11.4071 14.1986 11.4377 14.216 11.4683 14.2291C11.6213 14.3031 11.7787 14.3859 11.9142 14.473L11.9186 14.4774H11.923C11.9317 14.4817 11.9361 14.4861 11.9405 14.4861C11.9492 14.4904 11.958 14.4948 11.9667 14.4991C12.111 14.5732 12.2553 14.6124 12.4039 14.6124C12.6488 14.6124 12.8761 14.5078 13.0816 14.3075L14.625 12.77C14.848 12.5479 15.0884 12.4303 15.3158 12.4303C15.6218 12.4303 15.8623 12.6437 15.9804 12.77L18.4681 15.2439C18.9272 15.7012 18.9228 16.1847 18.455 16.6725C18.2757 16.8641 18.0877 17.047 17.9085 17.2169L17.8604 17.2648C17.5849 17.5305 17.3007 17.8049 17.0428 18.1141C16.5881 18.6019 16.0459 18.8328 15.3376 18.8328C15.2721 18.8328 15.2021 18.8284 15.1278 18.824C13.7899 18.7369 12.5438 18.2186 11.6082 17.7744C9.05049 16.5418 6.81195 14.7953 4.95378 12.5828C3.42353 10.7491 2.3917 9.03746 1.70964 7.20819C1.29429 6.10192 1.12815 5.2047 1.19373 4.38153C1.24619 3.84582 1.45169 3.41028 1.82769 3.03571L3.36232 1.50697C3.58092 1.29355 3.82139 1.18467 4.05749 1.18467C4.28921 1.18467 4.52531 1.29791 4.73517 1.51568C4.97127 1.73345 5.19862 1.96429 5.43909 2.20383L5.54839 2.31707C5.61835 2.39112 5.69267 2.4608 5.76263 2.53484C5.83258 2.60453 5.90691 2.67857 5.97686 2.75261L7.20544 3.97648C7.44591 4.21603 7.56833 4.45557 7.56833 4.68206C7.56833 4.91289 7.44591 5.14808 7.20544 5.38763C7.13986 5.45296 7.07865 5.51829 7.01306 5.57927C6.94748 5.6446 6.88627 5.70993 6.82069 5.77091L6.73325 5.85801C6.39222 6.21951 6.05994 6.55488 5.69705 6.87282Z" fill="#FBD20F"/>
</svg>
