<svg width="20" height="20" viewBox="0 0 20 20" fill="none" xmlns="http://www.w3.org/2000/svg">
<g clip-path="url(#clip0)">
<path d="M9.6875 14.0625C10.119 14.0625 10.4688 14.4122 10.4688 14.8438C10.4688 15.2753 10.119 15.625 9.6875 15.625H8.59375C8.16223 15.625 7.8125 15.2753 7.8125 14.8438C7.8125 14.4122 8.16223 14.0625 8.59375 14.0625H9.6875ZM16.0938 9.88281C16.0938 9.45129 15.744 9.10156 15.3125 9.10156H8.59375C8.16223 9.10156 7.8125 9.45129 7.8125 9.88281C7.8125 10.3143 8.16223 10.6641 8.59375 10.6641H15.3125C15.744 10.6641 16.0938 10.3143 16.0938 9.88281ZM8.59375 5.97656H15.3125C15.744 5.97656 16.0938 5.62683 16.0938 5.19531C16.0938 4.76379 15.744 4.41406 15.3125 4.41406H8.59375C8.16223 4.41406 7.8125 4.76379 7.8125 5.19531C7.8125 5.62683 8.16223 5.97656 8.59375 5.97656ZM5.46875 14.0625H4.6875C4.25598 14.0625 3.90625 14.4122 3.90625 14.8438C3.90625 15.2753 4.25598 15.625 4.6875 15.625H5.46875C5.90027 15.625 6.25 15.2753 6.25 14.8438C6.25 14.4122 5.90027 14.0625 5.46875 14.0625ZM5.46875 9.10156H4.6875C4.25598 9.10156 3.90625 9.45129 3.90625 9.88281C3.90625 10.3143 4.25598 10.6641 4.6875 10.6641H5.46875C5.90027 10.6641 6.25 10.3143 6.25 9.88281C6.25 9.45129 5.90027 9.10156 5.46875 9.10156ZM5.46875 4.41406H4.6875C4.25598 4.41406 3.90625 4.76379 3.90625 5.19531C3.90625 5.62683 4.25598 5.97656 4.6875 5.97656H5.46875C5.90027 5.97656 6.25 5.62683 6.25 5.19531C6.25 4.76379 5.90027 4.41406 5.46875 4.41406ZM19.7713 18.6662C20.0763 18.9714 20.0763 19.4661 19.7713 19.7711C19.6187 19.9237 19.4186 20 19.2188 20C19.0189 20 18.8188 19.9237 18.6662 19.7713L17.3447 18.4497C16.8184 18.7642 16.2035 18.9453 15.5469 18.9453C13.6084 18.9453 12.0312 17.3682 12.0312 15.4297C12.0312 13.4912 13.6084 11.9141 15.5469 11.9141C17.4854 11.9141 19.0625 13.4912 19.0625 15.4297C19.0625 16.147 18.8464 16.8146 18.4761 17.3714L19.7713 18.6662ZM15.5469 17.3828C16.6238 17.3828 17.5 16.5067 17.5 15.4297C17.5 14.3527 16.6238 13.4766 15.5469 13.4766C14.4699 13.4766 13.5938 14.3527 13.5938 15.4297C13.5938 16.5067 14.4699 17.3828 15.5469 17.3828ZM16.875 0H3.125C1.40182 0 0 1.40182 0 3.125V16.875C0 18.5982 1.40182 20 3.125 20H11.1719C11.6034 20 11.9531 19.6503 11.9531 19.2188C11.9531 18.7872 11.6034 18.4375 11.1719 18.4375H3.125C2.26349 18.4375 1.5625 17.7365 1.5625 16.875V3.125C1.5625 2.26349 2.26349 1.5625 3.125 1.5625H16.875C17.7365 1.5625 18.4375 2.26349 18.4375 3.125V10.8594C18.4375 11.2909 18.7872 11.6406 19.2188 11.6406C19.6503 11.6406 20 11.2909 20 10.8594V3.125C20 1.40182 18.5982 0 16.875 0Z" fill="black"/>
</g>
<defs>
<clipPath id="clip0">
<rect width="20" height="20" fill="white"/>
</clipPath>
</defs>
</svg>
