<svg width="21" height="20" viewBox="0 0 21 20" fill="none" xmlns="http://www.w3.org/2000/svg">
<path d="M14.2945 1.25H6.96141C4.15836 1.25 1.87793 3.53043 1.87793 6.33348V13.6665C1.87793 16.4696 4.15836 18.75 6.96141 18.75H14.2945C17.0975 18.75 19.3779 16.4696 19.3779 13.6666V6.33348C19.3779 3.53043 17.0975 1.25 14.2945 1.25ZM18.0107 13.6665C18.0107 15.7157 16.3436 17.3828 14.2945 17.3828H6.96141C4.91223 17.3828 3.24512 15.7157 3.24512 13.6666V6.33348C3.24512 4.2843 4.91223 2.61719 6.96141 2.61719H14.2945C16.3436 2.61719 18.0107 4.2843 18.0107 6.33348V13.6665Z" fill="#FBD20F"/>
<path d="M10.6279 5.2832C8.02706 5.2832 5.91113 7.39913 5.91113 10C5.91113 12.6009 8.02706 14.7168 10.6279 14.7168C13.2288 14.7168 15.3447 12.6009 15.3447 10C15.3447 7.39913 13.2288 5.2832 10.6279 5.2832ZM10.6279 13.3496C8.78096 13.3496 7.27832 11.847 7.27832 10C7.27832 8.15303 8.78096 6.65039 10.6279 6.65039C12.4749 6.65039 13.9775 8.15303 13.9775 10C13.9775 11.847 12.4749 13.3496 10.6279 13.3496Z" fill="#FBD20F"/>
<path d="M15.4131 5.89844C15.7906 5.89844 16.0967 5.59238 16.0967 5.21484C16.0967 4.83731 15.7906 4.53125 15.4131 4.53125C15.0355 4.53125 14.7295 4.83731 14.7295 5.21484C14.7295 5.59238 15.0355 5.89844 15.4131 5.89844Z" fill="#FBD20F"/>
</svg>
