<svg width="28" height="28" viewBox="0 0 28 28" fill="none" xmlns="http://www.w3.org/2000/svg">
<path d="M27.0306 20.1585L23.56 16.7012C22.9479 16.0671 22.2133 15.7317 21.4421 15.7317C20.6708 15.7317 19.9302 16.0671 19.2997 16.6951L17.2982 18.689C17.1329 18.5976 16.9676 18.5122 16.8024 18.4329C16.5881 18.3293 16.3678 18.2134 16.178 18.0915C14.3111 16.9085 12.6156 15.372 10.9813 13.378C10.1794 12.3659 9.6469 11.5244 9.2674 10.6829C9.79381 10.2073 10.2896 9.70732 10.7487 9.23781C10.9201 9.06098 11.1037 8.87805 11.2751 8.70732C11.9239 8.06098 12.2728 7.31098 12.2728 6.54878C12.2728 5.78049 11.93 5.03659 11.2812 4.39024L9.56121 2.67683C9.36534 2.48171 9.18171 2.29268 8.99195 2.09756L8.97359 2.07927C8.60021 1.69512 8.19622 1.28659 7.79836 0.920732C7.18625 0.323171 6.45173 0 5.68049 0C4.91536 0 4.18084 0.317073 3.53813 0.926829L1.38353 3.07927C0.575559 3.88415 0.122604 4.85976 0.0246675 5.98781C-0.0855107 7.38415 0.171572 8.85976 0.832641 10.6402C1.84873 13.3902 3.37898 15.9329 5.64988 18.6524C8.40434 21.9268 11.7219 24.5183 15.5231 26.3537C16.9799 27.0427 18.9264 27.8476 21.0687 27.9878H21.0871C21.2156 27.9939 21.338 28 21.4666 28C22.9356 28 24.1231 27.4939 25.0902 26.4512C25.1025 26.439 25.1147 26.4268 25.1269 26.4085C25.433 26.0427 25.7758 25.7073 26.143 25.3537L26.2226 25.2744C26.547 24.9634 26.8102 24.7073 27.0367 24.4634C28.3221 23.1341 28.3221 21.4451 27.0306 20.1585ZM7.97586 9.62195L7.93914 9.65854C7.41885 10.1768 7.49231 10.6829 7.62085 11.061C7.62697 11.0732 7.62697 11.0793 7.63309 11.0915C7.63309 11.0976 7.63921 11.1037 7.63921 11.1098V11.1159V11.122C8.09829 12.2134 8.72875 13.2378 9.68363 14.4329C11.4159 16.5671 13.2461 18.2256 15.2782 19.5061C15.4864 19.6402 15.7128 19.7561 15.9271 19.8598C15.9699 19.878 16.0128 19.9024 16.0556 19.9207C16.2698 20.0244 16.4902 20.1402 16.6799 20.2622L16.6861 20.2683H16.6922C16.7044 20.2744 16.7106 20.2805 16.7167 20.2805C16.7289 20.2866 16.7412 20.2927 16.7534 20.2988C16.9554 20.4024 17.1574 20.4573 17.3655 20.4573C17.7083 20.4573 18.0266 20.311 18.3143 20.0305L20.475 17.878C20.7871 17.5671 21.1238 17.4024 21.4421 17.4024C21.8706 17.4024 22.2072 17.7012 22.3725 17.878L25.8553 21.3415C26.4981 21.9817 26.4919 22.6585 25.837 23.3415C25.586 23.6098 25.3228 23.8659 25.0719 24.1037L25.0045 24.1707C24.6189 24.5427 24.221 24.9268 23.8599 25.3598C23.2233 26.0427 22.4643 26.3659 21.4727 26.3659C21.3809 26.3659 21.2829 26.3598 21.1789 26.3537C19.3059 26.2317 17.5614 25.5061 16.2515 24.8841C12.6707 23.1585 9.53672 20.7134 6.93529 17.6159C4.79294 15.0488 3.34838 12.6524 2.3935 10.0915C1.812 8.54268 1.57941 7.28659 1.67122 6.13415C1.74467 5.38415 2.03236 4.77439 2.55877 4.25L4.70724 2.10976C5.01329 1.81098 5.34995 1.65854 5.68049 1.65854C6.0049 1.65854 6.33543 1.81707 6.62924 2.12195C6.95978 2.42683 7.27807 2.75 7.61473 3.08537L7.76775 3.2439C7.86569 3.34756 7.96974 3.44512 8.06768 3.54878C8.16562 3.64634 8.26967 3.75 8.36761 3.85366L10.0876 5.56707C10.4243 5.90244 10.5957 6.2378 10.5957 6.55488C10.5957 6.87805 10.4243 7.20732 10.0876 7.54268C9.9958 7.63415 9.91011 7.72561 9.81829 7.81098C9.72648 7.90244 9.64078 7.9939 9.54897 8.07927L9.42655 8.20122C8.94911 8.70732 8.48391 9.17683 7.97586 9.62195Z" fill="#FBD20F"/>
</svg>
