<svg width="21" height="20" viewBox="0 0 21 20" fill="none" xmlns="http://www.w3.org/2000/svg">
<g clip-path="url(#clip0)">
<path d="M19.9851 1.98669C19.7408 1.68793 19.3749 1.52344 18.9547 1.52344C18.7263 1.52344 18.4843 1.5715 18.2356 1.66656L1.30594 8.12912C0.407502 8.47198 0.2865 8.98651 0.294282 9.2627C0.302064 9.53888 0.452058 10.0458 1.3685 10.3374C1.37399 10.3391 1.37949 10.3407 1.38498 10.3423L4.89664 11.3472L6.79575 16.7778C7.05469 17.5182 7.6359 17.9781 8.31278 17.9781C8.73956 17.9781 9.15933 17.7992 9.52676 17.4611L11.6989 15.4611L14.8493 17.9979C14.8496 17.9982 14.8501 17.9984 14.8504 17.9987L14.8803 18.0228C14.8831 18.0249 14.886 18.0272 14.8887 18.0293C15.2389 18.3009 15.6211 18.4444 15.9945 18.4445H15.9947C16.7242 18.4445 17.3051 17.9045 17.4743 17.0689L20.2482 3.37204C20.3596 2.82227 20.2662 2.33032 19.9851 1.98669ZM6.07141 11.1563L12.8465 7.69516L8.62787 12.1777C8.55875 12.2511 8.50977 12.341 8.48566 12.4388L7.67221 15.7338L6.07141 11.1563ZM8.73285 16.599C8.70477 16.6248 8.67655 16.6478 8.64832 16.669L9.40302 13.6124L10.7758 14.7179L8.73285 16.599ZM19.0997 3.13934L16.3258 16.8364C16.2991 16.9675 16.2138 17.2725 15.9945 17.2725C15.8862 17.2725 15.7501 17.2134 15.6107 17.1062L12.0408 14.2317C12.0403 14.2313 12.0397 14.2308 12.0391 14.2305L9.91495 12.52L16.0156 6.0376C16.2109 5.83008 16.2286 5.51224 16.0575 5.28427C15.8863 5.0563 15.5761 4.98459 15.3224 5.11429L5.28848 10.2403L1.72907 9.22195L18.6535 2.76138C18.7965 2.70676 18.8963 2.69531 18.9547 2.69531C18.9906 2.69531 19.0544 2.69958 19.078 2.72873C19.1091 2.76672 19.1488 2.89627 19.0997 3.13934Z" fill="#FBD20F"/>
</g>
<defs>
<clipPath id="clip0">
<rect width="20" height="20" fill="white" transform="translate(0.293945)"/>
</clipPath>
</defs>
</svg>
